<svg height="512pt" viewBox="0 -20 512 512" width="512pt" xmlns="http://www.w3.org/2000/svg"><path d="m348.976562 135.640625h29.75v29.75h-29.75zm0 0"/><path d="m165.933594 18.765625h29.75v29.75h-29.75zm0 0"/><path d="m324.753906 426.878906h29.75v29.75h-29.75zm0 0"/><path d="m482.125 305.878906h29.75v29.75h-29.75zm0 0"/><path d="m50.59375 41.640625h29.75v29.75h-29.75zm0 0"/><path d="m511.96875 146.335938-.019531-1.101563c-.984375-39.011719-16.929688-75.53125-44.882813-102.828125-28.007812-27.347656-64.992187-42.40625-104.140625-42.40625-82.203125 0-149.074219 66.875-149.074219 149.074219 0 50.6875-41.238281 91.925781-91.925781 91.925781s-91.925781-41.238281-91.925781-91.925781h-30c0 68.382812 26.628906 132.667969 74.980469 181.023437 48.351562 48.351563 112.640625 74.976563 181.019531 74.976563 67.738281 0 131.59375-26.199219 179.800781-73.777344 48.152344-47.527344 75.203125-110.9375 76.152344-178.542969l.015625-.9375c.015625-.914062.03125-1.824218.03125-2.742187 0-.914063-.015625-1.828125-.03125-2.738281zm-29.996094 4.96875-.015625 1.019531c-1.730469 122.824219-103.09375 222.75-225.957031 222.75-88.273438 0-164.894531-50.871094-202.070312-124.839844 19.4375 13.109375 42.835937 20.765625 67.996093 20.765625 67.230469 0 121.925781-54.695312 121.925781-121.925781 0-65.65625 53.417969-119.074219 119.074219-119.074219 65.078125 0 117.347657 50.917969 119.035157 115.929688l.011718.917968c.015625.742188.027344 1.484375.027344 2.226563 0 .746093-.015625 1.488281-.027344 2.230469zm0 0"/><path d="m451.964844 146.488281c-1.355469-47.6875-41.300782-86.484375-89.039063-86.484375-49.117187 0-89.074219 39.957032-89.074219 89.070313 0 66.152343-44.203124 125.902343-107.488281 145.300781l-34.421875 10.550781 31.726563 17.011719c28.234375 15.136719 60.164062 23.140625 92.332031 23.140625 106.550781 0 194.460938-86.65625 195.960938-193.144531l.023437-1.484375c.007813-.457031.015625-.914063.015625-1.371094 0-.460937-.007812-.917969-.015625-1.371094zm-89.039063-56.484375c31.632813 0 58.105469 25.675782 59.046875 57.253906l.015625.988282c.007813.277344.011719.554687.011719.828125 0 .277343-.003906.554687-.011719.832031l-.023437 1.574219c-.28125 20.054687-4.191406 39.273437-11.074219 57.042969-65.777344 20.226562-99.652344-23.1875-108.425781-36.859376.917968-7.4375 1.386718-14.976562 1.386718-22.589843 0-32.570313 26.5-59.070313 59.074219-59.070313zm-153.386719 218.425782c12.132813-6.714844 23.511719-14.828126 33.859376-24.105469 5.480468 1.925781 13.238281 5.726562 18.292968 12.777343 3.414063 4.761719 5.234375 10.65625 5.464844 17.585938-3.691406.25-7.410156.386719-11.15625.386719-15.746094 0-31.421875-2.261719-46.460938-6.644531zm87.410157 1.480468c-.957031-11.503906-4.667969-21.761718-11.125-30.632812-6.066407-8.332032-13.605469-14.089844-20.753907-18.050782.785157-1 1.566407-2 2.332032-3.015624 11.527344-15.335938 20.421875-32.078126 26.539062-49.765626 4.675782 4.71875 10.175782 9.566407 16.546875 14.09375 15.324219 10.902344 37.699219 21.371094 67.101563 21.371094 4.8125 0 9.8125-.289062 15-.890625-22.535156 32.566407-56.375 56.796875-95.640625 66.890625zm0 0"/><path d="m121 202.515625c28.671875 0 52-23.328125 52-52s-23.328125-52-52-52-52 23.328125-52 52 23.328125 52 52 52zm0-74c12.132812 0 22 9.871094 22 22 0 12.132813-9.867188 22-22 22s-22-9.867187-22-22c0-12.128906 9.867188-22 22-22zm0 0"/><path d="m449.328125 367.628906c-28.671875 0-52 23.324219-52 52 0 28.671875 23.328125 52 52 52s52-23.328125 52-52c0-28.675781-23.328125-52-52-52zm0 74c-12.132813 0-22-9.871094-22-22 0-12.132812 9.867187-22 22-22s22 9.867188 22 22c0 12.128906-9.867187 22-22 22zm0 0"/></svg>